<svg width="110" height="100" viewBox="0 0 110 100" fill="none" xmlns="http://www.w3.org/2000/svg">
<path d="M46.45 82.95C45.3833 82.95 44.4333 82.6333 43.6 82C42.8 81.4 42.4 80.2667 42.4 78.6V72.3H17.35C16.4167 72.3 15.65 72.2 15.05 72C14.45 71.8 13.9833 71.55 13.65 71.25C13.3167 70.9167 13.0833 70.55 12.95 70.15C12.85 69.7167 12.8 69.3 12.8 68.9C12.8 68.4 12.85 67.95 12.95 67.55C13.0833 67.1167 13.3167 66.75 13.65 66.45C13.9833 66.1167 14.45 65.8667 15.05 65.7C15.65 65.5 16.4167 65.4 17.35 65.4H46.75C47.6833 65.4 48.4 65.5 48.9 65.7C49.4333 65.8667 49.8167 66.1167 50.05 66.45C50.2833 66.75 50.4167 67.1167 50.45 67.55C50.4833 67.95 50.5 68.4 50.5 68.9V78.6C50.5 79.4333 50.3833 80.1333 50.15 80.7C49.9167 81.2667 49.6167 81.7167 49.25 82.05C48.8833 82.3833 48.45 82.6167 47.95 82.75C47.4833 82.8833 46.9833 82.95 46.45 82.95ZM15.3 61.95C14.3667 61.95 13.6333 61.8667 13.1 61.7C12.5667 61.5 12.15 61.25 11.85 60.95C11.5833 60.6167 11.4167 60.25 11.35 59.85C11.2833 59.4167 11.25 58.95 11.25 58.45V44.1C11.25 43.4667 11.2833 42.9 11.35 42.4C11.4167 41.8667 11.5833 41.4333 11.85 41.1C12.15 40.7333 12.5667 40.4667 13.1 40.3C13.6333 40.1 14.3667 40 15.3 40H19.8C21.4333 40 22.5167 40.35 23.05 41.05C23.5833 41.7167 23.85 42.5333 23.85 43.5C23.85 43.9 23.7833 44.3 23.65 44.7C23.55 45.1 23.35 45.4667 23.05 45.8C22.75 46.1 22.3333 46.35 21.8 46.55C21.2667 46.7167 20.6 46.8 19.8 46.8H18.35V55.15H20.8C21.6 55.15 22.2667 55.25 22.8 55.45C23.3333 55.6167 23.75 55.8667 24.05 56.2C24.35 56.5 24.55 56.85 24.65 57.25C24.7833 57.65 24.85 58.05 24.85 58.45C24.85 59.4167 24.5833 60.25 24.05 60.95C23.5167 61.6167 22.4333 61.95 20.8 61.95H15.3ZM30.35 61.95C29.4167 61.95 28.6833 61.8667 28.15 61.7C27.6167 61.5 27.2 61.25 26.9 60.95C26.6333 60.6167 26.4667 60.25 26.4 59.85C26.3333 59.4167 26.3 58.95 26.3 58.45V44.1C26.3 43.4667 26.3333 42.9 26.4 42.4C26.4667 41.8667 26.6333 41.4333 26.9 41.1C27.2 40.7333 27.6167 40.4667 28.15 40.3C28.6833 40.1 29.4167 40 30.35 40H34.6C36.2333 40 37.3167 40.35 37.85 41.05C38.3833 41.7167 38.65 42.5333 38.65 43.5C38.65 43.9 38.5833 44.3 38.45 44.7C38.35 45.1 38.15 45.4667 37.85 45.8C37.55 46.1 37.1333 46.35 36.6 46.55C36.0667 46.7167 35.4 46.8 34.6 46.8H33.4V55.15H35.6C36.4 55.15 37.0667 55.25 37.6 55.45C38.1333 55.6167 38.55 55.8667 38.85 56.2C39.15 56.5 39.35 56.85 39.45 57.25C39.5833 57.65 39.65 58.05 39.65 58.45C39.65 59.4167 39.3833 60.25 38.85 60.95C38.3167 61.6167 37.2333 61.95 35.6 61.95H30.35ZM46.4 63.4C45.8667 63.4 45.3667 63.3333 44.9 63.2C44.4333 63.0667 44.0167 62.8333 43.65 62.5C43.3167 62.1667 43.0333 61.7167 42.8 61.15C42.6 60.5833 42.5 59.8667 42.5 59V43.85C42.5 42.1833 42.8833 41.05 43.65 40.45C44.4167 39.8167 45.3333 39.5 46.4 39.5C47.4333 39.5 48.3 39.8167 49 40.45C49.7333 41.05 50.1 42.1833 50.1 43.85V47.65H52.15C53.0833 47.65 53.85 47.7667 54.45 48C55.05 48.2 55.5167 48.4667 55.85 48.8C56.1833 49.1333 56.4 49.5167 56.5 49.95C56.6333 50.35 56.7 50.75 56.7 51.15C56.7 51.65 56.6333 52.1167 56.5 52.55C56.4 52.9833 56.1833 53.3667 55.85 53.7C55.5167 54 55.05 54.25 54.45 54.45C53.85 54.65 53.0833 54.75 52.15 54.75H50.1V59C50.1 60.7333 49.75 61.9 49.05 62.5C48.35 63.1 47.4667 63.4 46.4 63.4ZM90.8098 61.95C89.9764 61.6833 89.3431 61.2167 88.9098 60.55C88.4764 59.8833 88.3764 59.0333 88.6098 58L88.7598 57.2H65.7098C64.7764 57.2 64.0098 57.1333 63.4098 57C62.8098 56.8333 62.3431 56.6167 62.0098 56.35C61.6764 56.05 61.4431 55.7 61.3098 55.3C61.2098 54.9 61.1598 54.45 61.1598 53.95C61.1598 53.55 61.2098 53.1667 61.3098 52.8C61.4431 52.4 61.6764 52.05 62.0098 51.75C62.3431 51.45 62.8098 51.2167 63.4098 51.05C64.0098 50.8833 64.7764 50.8 65.7098 50.8H89.6598V46.6H66.7598C65.8264 46.6 65.0598 46.5167 64.4598 46.35C63.8598 46.1833 63.3931 45.95 63.0598 45.65C62.7264 45.35 62.4931 45 62.3598 44.6C62.2598 44.2 62.2098 43.75 62.2098 43.25C62.2098 42.85 62.2598 42.45 62.3598 42.05C62.4931 41.65 62.7264 41.3 63.0598 41C63.3931 40.7 63.8598 40.4667 64.4598 40.3C65.0598 40.1 65.8264 40 66.7598 40H94.1098C95.0098 40 95.7098 40.1 96.2098 40.3C96.7098 40.4667 97.0931 40.7167 97.3598 41.05C97.6264 41.35 97.7931 41.7333 97.8598 42.2C97.9264 42.6667 97.9598 43.2 97.9598 43.8V48.8C97.9598 49.6333 97.9264 50.5667 97.8598 51.6C97.7931 52.6333 97.6764 53.6833 97.5098 54.75C97.3764 55.8167 97.1764 56.85 96.9098 57.85C96.6431 58.85 96.2764 59.7333 95.8098 60.5C95.5431 60.9667 95.1931 61.3333 94.7598 61.6C94.3598 61.8667 93.9264 62.05 93.4598 62.15C93.0264 62.25 92.5764 62.2833 92.1098 62.25C91.6431 62.1833 91.2098 62.0833 90.8098 61.95ZM80.2598 82.4C79.7264 82.4 79.2098 82.3333 78.7098 82.2C78.2431 82.0667 77.8098 81.8333 77.4098 81.5C77.0431 81.1667 76.7431 80.7167 76.5098 80.15C76.3098 79.5833 76.2098 78.8667 76.2098 78V70.95H62.8598C61.9264 70.95 61.1598 70.85 60.5598 70.65C59.9598 70.45 59.4931 70.2 59.1598 69.9C58.8264 69.5667 58.5931 69.2 58.4598 68.8C58.3598 68.3667 58.3098 67.95 58.3098 67.55C58.3098 67.05 58.3598 66.6 58.4598 66.2C58.5931 65.7667 58.8264 65.4 59.1598 65.1C59.4931 64.7667 59.9598 64.5167 60.5598 64.35C61.1598 64.15 61.9264 64.05 62.8598 64.05H97.6098C98.5431 64.05 99.3098 64.15 99.9098 64.35C100.51 64.5167 100.976 64.7667 101.31 65.1C101.643 65.4 101.86 65.7667 101.96 66.2C102.093 66.6 102.16 67.05 102.16 67.55C102.16 67.95 102.093 68.3667 101.96 68.8C101.86 69.2 101.643 69.5667 101.31 69.9C100.976 70.2 100.51 70.45 99.9098 70.65C99.3098 70.85 98.5431 70.95 97.6098 70.95H84.3098V78C84.3098 78.8667 84.1931 79.5833 83.9598 80.15C83.7264 80.7167 83.4264 81.1667 83.0598 81.5C82.6931 81.8333 82.2598 82.0667 81.7598 82.2C81.2931 82.3333 80.7931 82.4 80.2598 82.4Z" fill="#FF9670" style="fill:#FF9670;fill:color(display-p3 1.0000 0.5888 0.4392);fill-opacity:1;"/>
<rect x="22.5" y="7.5" width="64" height="22" rx="3.5" fill="white" style="fill:white;fill-opacity:1;"/>
<rect x="22.5" y="7.5" width="64" height="22" rx="3.5" stroke="#FF9670" style="stroke:#FF9670;stroke:color(display-p3 1.0000 0.5888 0.4392);stroke-opacity:1;"/>
<path d="M36.89 17.04V19.15H35.57V13.64H36.89V15.96H37.9V17.04H36.89ZM35.21 18.5C35.0567 18.54 34.9067 18.5733 34.76 18.6C34.6133 18.62 34.4533 18.6367 34.28 18.65C34.1133 18.6567 33.9233 18.6633 33.71 18.67C33.4967 18.67 33.25 18.67 32.97 18.67H32.48V14.38H34.93V15.43H33.73V17.58C34.0233 17.5733 34.2733 17.56 34.48 17.54C34.6867 17.52 34.8967 17.4833 35.11 17.43L35.21 18.5ZM32.21 18.51C32.0233 18.55 31.8433 18.58 31.67 18.6C31.5033 18.62 31.3367 18.6367 31.17 18.65C31.0033 18.6567 30.8333 18.6633 30.66 18.67C30.4867 18.67 30.3033 18.67 30.11 18.67H29.64V14.38H32.02V15.43H30.89V17.58C31.09 17.5667 31.29 17.55 31.49 17.53C31.69 17.51 31.8967 17.48 32.11 17.44L32.21 18.51ZM36.89 19.52V22.87H35.56V20.56H30.53V19.52H36.89ZM48.5248 22.86H47.2048V13.65H48.5248V22.86ZM44.4548 16.13C44.4548 16.5033 44.5015 16.88 44.5948 17.26C44.6882 17.6333 44.8282 17.9867 45.0148 18.32C45.2082 18.6533 45.4448 18.9533 45.7248 19.22C46.0115 19.4867 46.3482 19.7 46.7348 19.86L46.0148 20.9C45.4748 20.6667 45.0215 20.34 44.6548 19.92C44.2948 19.4933 44.0115 18.9967 43.8048 18.43C43.5982 19.0367 43.3082 19.5767 42.9348 20.05C42.5682 20.5233 42.1148 20.8833 41.5748 21.13L40.8248 20.08C41.2115 19.9067 41.5482 19.6767 41.8348 19.39C42.1215 19.1033 42.3582 18.7867 42.5448 18.44C42.7382 18.0867 42.8815 17.7133 42.9748 17.32C43.0682 16.92 43.1148 16.5233 43.1148 16.13V15.62H41.1948V14.53H46.3548V15.62H44.4548V16.13ZM58.4341 18.43H50.0941V17.38H55.9341C56.0274 16.92 56.0874 16.5067 56.1141 16.14C56.1407 15.7733 56.1541 15.43 56.1541 15.11H51.1241V14.06H57.4541V14.8C57.4541 15.1733 57.4441 15.5633 57.4241 15.97C57.4107 16.3767 57.3507 16.8467 57.2441 17.38H58.4341V18.43ZM57.4141 19.39V22.75H51.0741V19.39H57.4141ZM56.1241 21.72V20.42H52.3741V21.72H56.1241ZM66.3789 19.58V22.84H65.0589V19.58H61.5689V18.51H67.3689C67.4222 18.27 67.4656 18.04 67.4989 17.82C67.5389 17.5933 67.5722 17.3767 67.5989 17.17L62.3789 17.44L62.2289 16.32L67.6889 16.15C67.7022 15.9833 67.7089 15.8233 67.7089 15.67V15.21H62.5289V14.16H68.9789V14.99C68.9789 15.4633 68.9656 15.9833 68.9389 16.55C68.9122 17.11 68.8222 17.7633 68.6689 18.51H69.8889V19.58H66.3789ZM79.0781 19.51H70.7581V18.46H74.2481V17.63H71.5481V16.59H72.6581V15.04H71.4881V13.99H78.3381V15.04H77.1681V16.59H78.2681V17.63H75.5681V18.46H79.0781V19.51ZM75.8581 16.59V15.04H73.9681V16.59H75.8581ZM78.1481 21.65V22.7H71.7681V20.1H73.0881V21.65H78.1481Z" fill="#FF9670" style="fill:#FF9670;fill:color(display-p3 1.0000 0.5888 0.4392);fill-opacity:1;"/>
<g clip-path="url(#clip0_93_32469)">
<path d="M61.0674 28.5L55.3838 35.3203L55 35.7812L54.6162 35.3203L48.9326 28.5H61.0674Z" fill="white" stroke="#FF9670" style="fill:white;fill-opacity:1;stroke:#FF9670;stroke:color(display-p3 1.0000 0.5888 0.4392);stroke-opacity:1;" stroke-linejoin="round"/>
</g>
<defs>
<clipPath id="clip0_93_32469">
<rect width="64" height="8" fill="white" style="fill:white;fill-opacity:1;" transform="translate(23 29)"/>
</clipPath>
</defs>
</svg>
